# xmcd CD database file
#
# Track frame offsets:
#	187
#	21349
#	39829
#	62312
#	86027
#	108829
#	123879
#	138287
#	167412
#	187002
#	212157
#
# Disc length: 3066 seconds
#
# Revision: 0
# Processed by: cddbd v1.5.1PL0 Copyright (c) Steve Scherf et al.
# Submitted via: CDex 1.50
#
DISCID=880bf80b
DTITLE=Jimmy Rowles - Plus2, Plus3, Plus4
DYEAR=1989
DGENRE=Jazz
TTITLE0=All Day Long
TTITLE1=I Never Loved Anyone
TTITLE2=I Thought About You
TTITLE3=Don't Explain
TTITLE4=I Wished On The Moon
TTITLE5=I've Got A Crush On You
TTITLE6=I've Grown Accustomed To Her Face
TTITLE7=I Never Felt This Way Before
TTITLE8=Sweet Lorraine
TTITLE9=Lazy Afternoon
TTITLE10=Bag Of Wax
EXTD=YEAR: 1989
EXTT0=
EXTT1=
EXTT2=
EXTT3=
EXTT4=
EXTT5=
EXTT6=
EXTT7=
EXTT8=
EXTT9=
EXTT10=
PLAYORDER=
